<?xml version="1.0" encoding="UTF-8" standalone="no"?>
<!-- Generator: Gravit.io -->

<svg
   style="isolation:isolate"
   viewBox="0 0 45 25"
   width="45"
   height="25"
   version="1.1"
   id="svg4"
   sodipodi:docname="switch-on.svg"
   inkscape:version="1.3.2 (091e20ef0f, 2023-11-25)"
   xmlns:inkscape="http://www.inkscape.org/namespaces/inkscape"
   xmlns:sodipodi="http://sodipodi.sourceforge.net/DTD/sodipodi-0.dtd"
   xmlns:xlink="http://www.w3.org/1999/xlink"
   xmlns="http://www.w3.org/2000/svg"
   xmlns:svg="http://www.w3.org/2000/svg">
  <defs
     id="defs8">
    <linearGradient
       id="linearGradient3"
       inkscape:collect="always">
      <stop
         style="stop-color:#495aff;stop-opacity:1;"
         offset="0"
         id="stop3" />
      <stop
         style="stop-color:#0014cc;stop-opacity:1;"
         offset="1"
         id="stop4" />
    </linearGradient>
    <linearGradient
       inkscape:collect="always"
       xlink:href="#linearGradient3"
       id="linearGradient4"
       x1="-5.6843419e-14"
       y1="12.499999"
       x2="45"
       y2="12.499999"
       gradientUnits="userSpaceOnUse" />
  </defs>
  <sodipodi:namedview
     id="namedview6"
     pagecolor="#ffffff"
     bordercolor="#000000"
     borderopacity="0.25"
     inkscape:showpageshadow="2"
     inkscape:pageopacity="0.0"
     inkscape:pagecheckerboard="0"
     inkscape:deskcolor="#d1d1d1"
     showgrid="false"
     inkscape:zoom="17.908555"
     inkscape:cx="7.4266182"
     inkscape:cy="13.12222"
     inkscape:window-width="2560"
     inkscape:window-height="1372"
     inkscape:window-x="0"
     inkscape:window-y="0"
     inkscape:window-maximized="1"
     inkscape:current-layer="svg4"
     showguides="true">
    <sodipodi:guide
       position="5.3006329,16.337025"
       orientation="1,0"
       id="guide24204"
       inkscape:locked="false" />
    <sodipodi:guide
       position="-27.848101,13.844937"
       orientation="1,0"
       id="guide24206"
       inkscape:locked="false" />
    <sodipodi:guide
       position="42.049051,6.1708861"
       orientation="1,0"
       id="guide24208"
       inkscape:locked="false" />
    <sodipodi:guide
       position="35.513754,10.481799"
       orientation="1,0"
       id="guide29402"
       inkscape:locked="false" />
  </sodipodi:namedview>
  <path
     style="isolation:isolate;fill:#000000;fill-opacity:0.1;stroke-width:1.17261"
     d="M 0.024414,12.955468 A 11.875,10.45 0 0 0 0,13.599999 a 11.875,10.45 0 0 0 11.875,10.45 h 9.375 2.5 9.375 A 11.875,10.45 0 0 0 45,13.599999 11.875,10.45 0 0 0 44.97559,13.144532 11.875,10.45 0 0 1 33.125003,22.949999 h -9.375 -2.5 -9.375 A 11.875,10.45 0 0 1 0.024414,12.955468 Z"
     id="path900" />
  <path
     style="display:inline;opacity:1;isolation:isolate;fill:url(#linearGradient4);fill-opacity:1;stroke-width:1.17261"
     d="M 11.875,2.049999 A 11.875,10.45 0 0 0 0,12.5 11.875,10.45 0 0 0 11.875,22.949999 h 9.375 2.5 9.375 A 11.875,10.45 0 0 0 45,12.5 11.875,10.45 0 0 0 33.125,2.049999 h -9.375 -2.5 z"
     id="path872"
     inkscape:connector-curvature="0" />
  <path
     style="isolation:isolate;fill:#000000;fill-opacity:0.1;stroke-width:1.17261"
     d="M 11.875,2.049999 A 11.875,10.45 0 0 0 0,12.5 11.875,10.45 0 0 0 0.024414,12.955468 11.875,10.45 0 0 1 11.875,3.149999 h 9.375 2.5 9.375 A 11.875,10.45 0 0 1 44.975586,13.144532 11.875,10.45 0 0 0 45,12.5 11.875,10.45 0 0 0 33.125,2.049999 h -9.375 -2.5 z"
     id="path902" />
</svg>
